<?xml version="1.0" encoding="utf-8"?>
<!-- Generator: Adobe Illustrator 28.0.0, SVG Export Plug-In . SVG Version: 6.00 Build 0)  -->
<svg version="1.1" id="Logo" xmlns="http://www.w3.org/2000/svg" xmlns:xlink="http://www.w3.org/1999/xlink" x="0px" y="0px"
	 viewBox="0 0 628.6 109.2" style="enable-background:new 0 0 628.6 109.2;" xml:space="preserve">
<style type="text/css">
	.st0{fill:#002B49;}
	.st1{fill:#00BAB3;}
</style>
<g>
	<g>
		<g>
			<path class="st0" d="M236.4,50.9v42.8h-12.9V53.9c0-8.3-4-12.7-11.4-12.7c-8.8,0-13.3,6-13.3,17v35.5h-13V53.9
				c0-8.2-3.9-12.7-11.4-12.7c-8.7,0-13.3,6.1-13.3,16.9v35.6h-13V31.3H161v10.4c3.1-8.9,10.2-11.6,17.3-11.6
				c9.4,0,15.3,4,17.7,12.7c3.3-8.7,9.8-12.7,19.2-12.7C228.4,30.1,236.4,37.9,236.4,50.9z"/>
			<path class="st0" d="M251.6,5.5h13.8v14.9h-13.8V5.5z M251.9,93.7h13V31.3h-13V93.7z"/>
			<path class="st0" d="M364.7,62.6c0,19.6-11.6,32.4-30.6,32.4c-19,0-30.6-12.9-30.6-32.4c0-19.5,11.8-32.6,30.6-32.6
				S364.7,43.2,364.7,62.6z M316.4,62.6c0,12.6,6.2,20.7,17.9,20.7c11.3,0,17.4-8.1,17.4-20.7c0-12.5-6.2-20.8-17.7-20.8
				C322.6,41.8,316.4,50.2,316.4,62.6z"/>
			<path class="st0" d="M430.9,53.3v40.4H418v-39c0-8.1-4.8-13.1-12.4-13.1c-9.7,0-15.7,7.2-15.7,18.7v33.4h-13V31.3h13v9.3
				c4.3-7.3,9.9-10.5,19.1-10.5C423.1,30.1,430.9,38,430.9,53.3z"/>
			<path class="st0" d="M459.9,93.7h-13v-87h13V93.7z"/>
			<path class="st0" d="M475.7,5.5h13.8v14.9h-13.8V5.5z M476.1,93.7h13V31.3h-13V93.7z"/>
			<path class="st0" d="M559.2,53.3v40.4h-12.9v-39c0-8.1-4.8-13.1-12.4-13.1c-9.7,0-15.7,7.2-15.7,18.7v33.4h-13V31.3h13v9.3
				c4.3-7.3,9.9-10.5,19.1-10.5C551.3,30.1,559.2,38,559.2,53.3z"/>
			<path class="st0" d="M628.6,66.2h-45.5c0,11,7.5,18.1,18.4,18.1c7.3,0,13-3.3,15.2-8.9H628c-3.1,11.8-13.7,19.7-27.3,19.7
				c-17.7,0-29.7-13-29.7-32.4c0-19.5,12.1-32.6,29.9-32.6c16.9,0,27.8,11.9,27.8,30.7V66.2z M600.6,40.9c-9.7,0-16.5,6-17.4,15.9
				h33C616.2,47.1,610.3,40.9,600.6,40.9z"/>
		</g>
	</g>
	<g>
		<circle class="st1" cx="54.5" cy="54.6" r="11.9"/>
		<path class="st0" d="M73.4,2.7l-19,29.5c-1.8,2.8-4.9,4.4-8.2,4.4c-3.3,0-6.4-1.7-8.2-4.4l-15-23.1c2.5-1.7,5.1-3.2,7.8-4.5
			l14.7,22.7c0.1,0.2,0.4,0.3,0.6,0.3c0.2,0,0.5-0.1,0.6-0.3L64.4,0.2C67.5,0.8,70.5,1.6,73.4,2.7z"/>
		<g>
			<path class="st0" d="M51.6,8.6l-5.3,8.2L36.8,2.2c3-1,6-1.8,9.2-2.2L51.6,8.6z"/>
			<path class="st0" d="M86.9,9.8L72.5,32.2c-1.8,2.8-4.9,4.4-8.2,4.4c-1.6,0-3.2-0.4-4.6-1.1L79.2,5.2C81.9,6.5,84.5,8.1,86.9,9.8z
				"/>
		</g>
		<path class="st0" d="M86,100c-2.5,1.7-5,3.2-7.8,4.5L64.1,82.8c-0.2-0.2-0.4-0.3-0.6-0.3c-0.2,0-0.5,0.1-0.6,0.3l-17,26.4
			c-3.2-0.5-6.2-1.3-9.2-2.3l18.7-29c1.8-2.8,4.9-4.4,8.2-4.4c3.3,0,6.4,1.7,8.2,4.4L86,100z"/>
		<g>
			<path class="st0" d="M72.4,107c-2.9,1-6,1.8-9.1,2.3l-5-7.7l5.3-8.2L72.4,107z"/>
			<path class="st0" d="M50,74.6l-19.3,29.9c-2.7-1.3-5.3-2.8-7.7-4.5l14.2-22.1c1.8-2.8,4.9-4.4,8.2-4.4
				C47.1,73.4,48.6,73.8,50,74.6z"/>
		</g>
		<path class="st0" d="M109,64.1c-0.5,3.1-1.3,6.2-2.4,9.1L77.7,54.6c-2.8-1.8-4.4-4.9-4.4-8.2c0-3.3,1.7-6.4,4.4-8.2l22.6-14.6
			c1.7,2.5,3.2,5.1,4.4,7.8L82.6,45.8c-0.2,0.1-0.3,0.4-0.3,0.6c0,0.2,0.1,0.5,0.3,0.6L109,64.1z"/>
		<g>
			<path class="st0" d="M109.2,46.6l-7.9,5.1l-8.2-5.3l13.9-9C108,40.4,108.8,43.4,109.2,46.6z"/>
			<path class="st0" d="M104.1,79c-1.3,2.7-2.9,5.3-4.6,7.7l-21.8-14c-2.8-1.8-4.4-4.9-4.4-8.2c0-1.6,0.4-3.2,1.1-4.6L104.1,79z"/>
		</g>
		<path class="st0" d="M36.5,63.6c0,3.3-1.7,6.4-4.4,8.2L9.4,86.5c-1.7-2.4-3.3-5-4.6-7.7l22.4-14.5c0.2-0.2,0.3-0.4,0.3-0.6
			c0-0.2-0.1-0.5-0.3-0.6L0,45.5c0.5-3.2,1.3-6.2,2.3-9.2L32,55.5C34.8,57.3,36.5,60.3,36.5,63.6z"/>
		<g>
			<path class="st0" d="M16.6,63.6L2.4,72.9c-1-2.9-1.8-6-2.3-9.1l8.4-5.5L16.6,63.6z"/>
			<path class="st0" d="M36.5,45.6c0,1.6-0.4,3.2-1.1,4.6L4.8,30.5c1.3-2.7,2.8-5.3,4.5-7.7L32,37.4C34.8,39.2,36.5,42.3,36.5,45.6z
				"/>
		</g>
	</g>
</g>
</svg>
